<svg xmlns="http://www.w3.org/2000/svg" viewBox="0 0 720 380" font-family="-apple-system,Segoe UI,Roboto,sans-serif" font-size="13">
<text x="360" y="22" text-anchor="middle" font-size="15" fill="#888888">dense — GetBlockRange throughput</text>
<line x1="66" y1="334.0" x2="624" y2="334.0" stroke="#888888" stroke-opacity="0.2"/>
<text x="58" y="338.0" text-anchor="end" fill="#888888">0</text>
<line x1="66" y1="292.0" x2="624" y2="292.0" stroke="#888888" stroke-opacity="0.2"/>
<text x="58" y="296.0" text-anchor="end" fill="#888888">50k</text>
<line x1="66" y1="250.0" x2="624" y2="250.0" stroke="#888888" stroke-opacity="0.2"/>
<text x="58" y="254.0" text-anchor="end" fill="#888888">100k</text>
<line x1="66" y1="208.0" x2="624" y2="208.0" stroke="#888888" stroke-opacity="0.2"/>
<text x="58" y="212.0" text-anchor="end" fill="#888888">150k</text>
<line x1="66" y1="166.0" x2="624" y2="166.0" stroke="#888888" stroke-opacity="0.2"/>
<text x="58" y="170.0" text-anchor="end" fill="#888888">200k</text>
<line x1="66" y1="124.0" x2="624" y2="124.0" stroke="#888888" stroke-opacity="0.2"/>
<text x="58" y="128.0" text-anchor="end" fill="#888888">250k</text>
<line x1="66" y1="82.0" x2="624" y2="82.0" stroke="#888888" stroke-opacity="0.2"/>
<text x="58" y="86.0" text-anchor="end" fill="#888888">300k</text>
<line x1="66" y1="40.0" x2="624" y2="40.0" stroke="#888888" stroke-opacity="0.2"/>
<text x="58" y="44.0" text-anchor="end" fill="#888888">350k</text>
<text x="66.0" y="352" text-anchor="middle" fill="#888888">1</text>
<text x="159.0" y="352" text-anchor="middle" fill="#888888">2</text>
<text x="252.0" y="352" text-anchor="middle" fill="#888888">4</text>
<text x="345.0" y="352" text-anchor="middle" fill="#888888">8</text>
<text x="438.0" y="352" text-anchor="middle" fill="#888888">16</text>
<text x="531.0" y="352" text-anchor="middle" fill="#888888">32</text>
<text x="624.0" y="352" text-anchor="middle" fill="#888888">64</text>
<line x1="66" y1="40" x2="66" y2="334" stroke="#888888"/>
<line x1="66" y1="334" x2="624" y2="334" stroke="#888888"/>
<text x="345" y="372" text-anchor="middle" fill="#888888">concurrency (clients)</text>
<text transform="translate(16,187) rotate(-90)" text-anchor="middle" fill="#888888">blocks/s (W=1000)</text>
<polyline points="66.0,309.7 159.0,278.5 252.0,152.6 345.0,62.5 438.0,62.2 531.0,66.2 624.0,64.1" fill="none" stroke="#e43717" stroke-width="2.5"/>
<circle cx="66.0" cy="309.7" r="3.5" fill="#e43717"/>
<circle cx="159.0" cy="278.5" r="3.5" fill="#e43717"/>
<circle cx="252.0" cy="152.6" r="3.5" fill="#e43717"/>
<circle cx="345.0" cy="62.5" r="3.5" fill="#e43717"/>
<circle cx="438.0" cy="62.2" r="3.5" fill="#e43717"/>
<circle cx="531.0" cy="66.2" r="3.5" fill="#e43717"/>
<circle cx="624.0" cy="64.1" r="3.5" fill="#e43717"/>
<line x1="638" y1="50" x2="654" y2="50" stroke="#e43717" stroke-width="2.5"/>
<text x="658" y="54" fill="#e43717">rust</text>
<polyline points="66.0,287.4 159.0,284.3 252.0,283.4 345.0,275.9 438.0,274.7 531.0,266.0 624.0,260.8" fill="none" stroke="#00add8" stroke-width="2.5"/>
<circle cx="66.0" cy="287.4" r="3.5" fill="#00add8"/>
<circle cx="159.0" cy="284.3" r="3.5" fill="#00add8"/>
<circle cx="252.0" cy="283.4" r="3.5" fill="#00add8"/>
<circle cx="345.0" cy="275.9" r="3.5" fill="#00add8"/>
<circle cx="438.0" cy="274.7" r="3.5" fill="#00add8"/>
<circle cx="531.0" cy="266.0" r="3.5" fill="#00add8"/>
<circle cx="624.0" cy="260.8" r="3.5" fill="#00add8"/>
<line x1="638" y1="70" x2="654" y2="70" stroke="#00add8" stroke-width="2.5"/>
<text x="658" y="74" fill="#00add8">go</text>
</svg>
