<svg xmlns="http://www.w3.org/2000/svg" viewBox="0 0 720 380" font-family="-apple-system,Segoe UI,Roboto,sans-serif" font-size="13">
<text x="360" y="22" text-anchor="middle" font-size="15" fill="#888888">dense — GetBlock p99 latency</text>
<line x1="66" y1="334.0" x2="624" y2="334.0" stroke="#888888" stroke-opacity="0.2"/>
<text x="58" y="338.0" text-anchor="end" fill="#888888">100</text>
<line x1="66" y1="236.0" x2="624" y2="236.0" stroke="#888888" stroke-opacity="0.2"/>
<text x="58" y="240.0" text-anchor="end" fill="#888888">1k</text>
<line x1="66" y1="138.0" x2="624" y2="138.0" stroke="#888888" stroke-opacity="0.2"/>
<text x="58" y="142.0" text-anchor="end" fill="#888888">10k</text>
<line x1="66" y1="40.0" x2="624" y2="40.0" stroke="#888888" stroke-opacity="0.2"/>
<text x="58" y="44.0" text-anchor="end" fill="#888888">100k</text>
<text x="66.0" y="352" text-anchor="middle" fill="#888888">1</text>
<text x="159.0" y="352" text-anchor="middle" fill="#888888">2</text>
<text x="252.0" y="352" text-anchor="middle" fill="#888888">4</text>
<text x="345.0" y="352" text-anchor="middle" fill="#888888">8</text>
<text x="438.0" y="352" text-anchor="middle" fill="#888888">16</text>
<text x="531.0" y="352" text-anchor="middle" fill="#888888">32</text>
<text x="624.0" y="352" text-anchor="middle" fill="#888888">64</text>
<line x1="66" y1="40" x2="66" y2="334" stroke="#888888"/>
<line x1="66" y1="334" x2="624" y2="334" stroke="#888888"/>
<text x="345" y="372" text-anchor="middle" fill="#888888">concurrency (clients)</text>
<text transform="translate(16,187) rotate(-90)" text-anchor="middle" fill="#888888">µs (log scale)</text>
<polyline points="66.0,277.5 159.0,280.2 252.0,297.5 345.0,286.4 438.0,253.4 531.0,225.4 624.0,194.4" fill="none" stroke="#e43717" stroke-width="2.5"/>
<circle cx="66.0" cy="277.5" r="3.5" fill="#e43717"/>
<circle cx="159.0" cy="280.2" r="3.5" fill="#e43717"/>
<circle cx="252.0" cy="297.5" r="3.5" fill="#e43717"/>
<circle cx="345.0" cy="286.4" r="3.5" fill="#e43717"/>
<circle cx="438.0" cy="253.4" r="3.5" fill="#e43717"/>
<circle cx="531.0" cy="225.4" r="3.5" fill="#e43717"/>
<circle cx="624.0" cy="194.4" r="3.5" fill="#e43717"/>
<line x1="638" y1="50" x2="654" y2="50" stroke="#e43717" stroke-width="2.5"/>
<text x="658" y="54" fill="#e43717">rust</text>
<polyline points="66.0,269.6 159.0,290.2 252.0,281.2 345.0,246.7 438.0,160.5 531.0,65.0 624.0,66.8" fill="none" stroke="#00add8" stroke-width="2.5"/>
<circle cx="66.0" cy="269.6" r="3.5" fill="#00add8"/>
<circle cx="159.0" cy="290.2" r="3.5" fill="#00add8"/>
<circle cx="252.0" cy="281.2" r="3.5" fill="#00add8"/>
<circle cx="345.0" cy="246.7" r="3.5" fill="#00add8"/>
<circle cx="438.0" cy="160.5" r="3.5" fill="#00add8"/>
<circle cx="531.0" cy="65.0" r="3.5" fill="#00add8"/>
<circle cx="624.0" cy="66.8" r="3.5" fill="#00add8"/>
<line x1="638" y1="70" x2="654" y2="70" stroke="#00add8" stroke-width="2.5"/>
<text x="658" y="74" fill="#00add8">go</text>
</svg>
